PathFileType	4	(X/Y/Z)	55_2_48_p0_0-249.trc
DataRate	CameraRate	NumFrames	NumMarkers	Units	OrigDataRate	OrigDataStartFrame	OrigNumFrames
59.0	59.0	4	27	m	59.0	0	250
Frame#	Time	RHip			RKnee			RAnkle			RBigToe			RSmallToe			RHeel			LHip			LKnee			LAnkle			LBigToe			LSmallToe			LHeel			Neck			Head			Nose			RShoulder			RElbow			RWrist			RThumb			RIndex			RPinky			LShoulder			LElbow			LWrist			LThumb			LIndex			LPinky			
		X1	Y1	Z1	X2	Y2	Z2	X3	Y3	Z3	X4	Y4	Z4	X5	Y5	Z5	X6	Y6	Z6	X7	Y7	Z7	X8	Y8	Z8	X9	Y9	Z9	X10	Y10	Z10	X11	Y11	Z11	X12	Y12	Z12	X13	Y13	Z13	X14	Y14	Z14	X15	Y15	Z15	X16	Y16	Z16	X17	Y17	Z17	X18	Y18	Z18	X19	Y19	Z19	X20	Y20	Z20	X21	Y21	Z21	X22	Y22	Z22	X23	Y23	Z23	X24	Y24	Z24	X25	Y25	Z25	X26	Y26	Z26	X27	Y27	Z27	
0	0.0	0.32357772376632826	0.5407380380652703	0.7783543101883647	0.3271962164480867	0.5763852599957312	1.200516048476506	0.32144019400100776	0.6315659025448415	1.6457458590155616	0.29281804379000187	0.433856068485767	1.6456110455823207	0.35511391592568325	0.4669898782059162	1.6659375101943692	0.3034613808527984	0.6802310541526456	1.7044791975717122	0.12643813624946312	0.5856272481052275	0.802253492924619	0.13754815791826133	0.6124836817943915	1.2056799069170276	0.15511505849254134	0.6134324322430369	1.6094194734325618	0.12760094755487525	0.4204201112694319	1.62222081341887	0.08300907515152431	0.47914654204261015	1.6416844697834072	0.17402628687377417	0.6618404492448505	1.6868442219892048	0.2272392991815761	0.5833499359146953	0.21636234794200002	0.22784838882930708	0.5562145521117954	-0.03613317015602696	0.20717879155743849	0.4694698901182468	0.08137558609569367	0.378305215085323	0.5484572530283329	0.30102841866804	0.3850493846982926	0.49558084335884584	0.5610479395702183	0.2532380444327949	0.3599756589882701	0.7041422578971555	0.22015567738337774	0.43879360951786217	0.8441327965424656	0.2185855330877801	0.4380717534112438	0.8443659108939578	0.19301707177039049	0.3958896239315052	0.8238298412309868	0.076761851404415	0.6129672131073491	0.3091977680655108	0.05635651341957207	0.5192188722384203	0.5459327666686696	0.14683706822446277	0.4028538656825774	0.7323988363540188	0.23304021738380173	0.41103981203774853	0.8073122433845283	0.2389907349929902	0.4168056133222698	0.8520881611812018	0.20025009792623752	0.3988809752619787	0.8544028049200545
1	0.01694915254237288	0.3281292750495721	0.5417249303147319	0.7789655606043073	0.32655078488472905	0.57630819211609	1.205495089775603	0.3214246859274288	0.6313247684760329	1.6455420212072758	0.292760150846859	0.4338175955983275	1.645277309174352	0.35523862995895655	0.4674240261561602	1.6658866643143635	0.29786146929021745	0.6671613533123424	1.690516576845391	0.12646371278520024	0.5855644080705625	0.8022429788342577	0.13778347304824223	0.6114568711692353	1.2095988196922947	0.15475852737561566	0.6151601344333197	1.6053297808814364	0.13112396839517132	0.4329137090063874	1.63050559002145	0.08296711038329038	0.4799349171666028	1.6418502545815523	0.17388277272973746	0.6614096563683528	1.686927006494349	0.22722423222320873	0.583337243391133	0.21636437281618773	0.2277375850750293	0.5559712251119807	-0.035931271707057996	0.20721928100920292	0.46938803901606513	0.08126608559393898	0.3782248828864893	0.5484663066143994	0.30101198328383744	0.38754823260570614	0.4803819712407419	0.5564514472112027	0.25621336351407736	0.34585416055210466	0.7035465531813698	0.21937380945292434	0.4391667452872482	0.8412689877199946	0.21531599877472066	0.4367660397135239	0.8411246751129174	0.20417972136970738	0.3948459901320631	0.8351002134816917	0.07673047580135733	0.6127861358817136	0.3090089467647538	0.05604101196636308	0.5178986158770128	0.545479719319377	0.15305452828365324	0.4001733348898099	0.7197703660064497	0.233122103941984	0.4108771101038579	0.8070108172224596	0.23491410980597674	0.40786038276776376	0.8438470751989983	0.20054423398558974	0.3984151038799753	0.8501188490801815
2	0.03389830508474576	0.3323001417407977	0.5536427690883244	0.7869628010014935	0.3314928969586001	0.5885192963852764	1.2114725875298886	0.32272671659282853	0.6327542304747447	1.6514571050780789	0.29284038860281614	0.43376554326138167	1.645676328328623	0.35505953443823723	0.4666206250568777	1.665687472270259	0.3033149383222691	0.6814325062918698	1.7002430692449604	0.12229688353911086	0.5850258483881415	0.8027428654250945	0.13782874214089488	0.6117779175341527	1.2098564136115246	0.1547555100087629	0.6152072887851021	1.6053221822748394	0.1294743521129844	0.4327582578897429	1.6291777645858445	0.0829853188091133	0.47996562889210787	1.6418453291062718	0.17500349530935763	0.6612488473756312	1.6815393257366118	0.2271940142871472	0.5833269072354125	0.21637056446754302	0.2277064244517072	0.5560309926608236	-0.035945754602397725	0.20722796030181884	0.46937648498686013	0.08122667498404942	0.37824291466182647	0.5485021940902919	0.30097529347483265	0.3949828511969096	0.47689017705222364	0.5587625851111512	0.25811594351600137	0.34641256410074467	0.7103486443514618	0.21308652927165267	0.4322969958115482	0.8474774513059009	0.2039447985934081	0.4276133893106248	0.8435278798940149	0.20184436373054607	0.3967288673815656	0.839889657195712	0.07679006229223352	0.6121195484715279	0.31252204518482984	0.05225132125512671	0.5304825141058018	0.5491545056539804	0.1562575824573619	0.38757980342976933	0.7150633379042417	0.23326141555412744	0.4118692842010469	0.8114792300524207	0.23439574776397343	0.4070266614038689	0.8439295838566678	0.2004619504743749	0.40036433255022125	0.8425881357373032
3	0.05084745762711865	0.33226131359523575	0.5538836742322114	0.7871352590189274	0.3265269801645031	0.5764369782473702	1.2055684352742368	0.3177033133835232	0.6194367945490985	1.6428034276691281	0.2928479510036135	0.4338571746307778	1.6455241417007618	0.3551692050351205	0.4667838620129286	1.6656359471779028	0.29813010369370535	0.6653246147609503	1.6943826198655645	0.1219900348620496	0.5997539314641708	0.8114902009262588	0.13767788091436045	0.6115950467806444	1.209788198294034	0.15467599177924637	0.6149571181666722	1.6052104087692736	0.13093564783877656	0.43325133058639737	1.6307690763358569	0.08296007607077885	0.4799215773822129	1.6417853701201321	0.1750342363788553	0.661166378489367	1.6813187453134073	0.22718776230163776	0.5833225218687214	0.2163576252346427	0.22770071263630326	0.5559870199924801	-0.03595282011565887	0.20719747272147948	0.46935646832574235	0.08123272896368186	0.3783550519852917	0.548462751447416	0.3009700688120583	0.39228175210098337	0.4903674146771061	0.5591959101380832	0.2673836173870131	0.3661256514949384	0.7326037576383382	0.21707106406744267	0.41800107397507885	0.8452843874289985	0.2072278713848904	0.4283391431163895	0.8475658129591742	0.20338754538369963	0.41262249487335756	0.8474189905652573	0.0766706119108428	0.6120844928852273	0.31268582146779256	0.0522596185392801	0.5305536115850128	0.5492055194118838	0.15574655080739844	0.3871100732229855	0.7183934701836645	0.23249270176787704	0.4096581959282347	0.8106352990732237	0.23465942532172018	0.40452570532356424	0.8470605986646874	0.20725980108553535	0.388000328488386	0.8447800507360641
